<?xml version="1.0" encoding="utf-8"?>
<!-- Generator: Adobe Illustrator 22.1.0, SVG Export Plug-In . SVG Version: 6.00 Build 0)  -->
<svg version="1.1" id="Calque_1" xmlns="http://www.w3.org/2000/svg" xmlns:xlink="http://www.w3.org/1999/xlink" x="0px" y="0px"
	 viewBox="0 0 42.5 42.5" style="enable-background:new 0 0 42.5 42.5;" xml:space="preserve">
<style type="text/css">
	.st0{fill:#9999FF;}
</style>
<path class="st0" d="M0,1.5c0.8,0,1.5-0.7,1.5-1.5H0V1.5z M8.6,0c0,0.8-0.7,1.5-1.5,1.5S5.6,0.8,5.6,0H8.6z M15.6,0
	c0,0.8-0.7,1.5-1.5,1.5S12.6,0.8,12.6,0H15.6z M22.7,0c0,0.8-0.7,1.5-1.5,1.5S19.7,0.8,19.7,0H22.7z M29.8,0c0,0.8-0.7,1.5-1.5,1.5
	S26.8,0.8,26.8,0H29.8z M36.9,0c0,0.8-0.7,1.5-1.5,1.5S33.9,0.8,33.9,0H36.9z M42.5,0v1.5C41.6,1.5,41,0.8,41,0H42.5z"/>
<circle class="st0" cx="3.5" cy="3.5" r="1.5"/>
<circle class="st0" cx="10.6" cy="3.5" r="1.5"/>
<circle class="st0" cx="17.7" cy="3.5" r="1.5"/>
<circle class="st0" cx="24.8" cy="3.5" r="1.5"/>
<circle class="st0" cx="31.9" cy="3.5" r="1.5"/>
<circle class="st0" cx="38.9" cy="3.5" r="1.5"/>
<path class="st0" d="M0,5.6c0.8,0,1.5,0.7,1.5,1.5S0.8,8.6,0,8.6C0,8.6,0,5.6,0,5.6z"/>
<circle class="st0" cx="7.1" cy="7.1" r="1.5"/>
<circle class="st0" cx="14.1" cy="7.1" r="1.5"/>
<circle class="st0" cx="21.2" cy="7.1" r="1.5"/>
<circle class="st0" cx="28.3" cy="7.1" r="1.5"/>
<circle class="st0" cx="35.4" cy="7.1" r="1.5"/>
<path class="st0" d="M42.5,8.6c-0.8,0-1.5-0.7-1.5-1.5s0.7-1.5,1.5-1.5V8.6z"/>
<circle class="st0" cx="3.5" cy="10.6" r="1.5"/>
<circle class="st0" cx="10.6" cy="10.6" r="1.5"/>
<circle class="st0" cx="17.7" cy="10.6" r="1.5"/>
<circle class="st0" cx="24.8" cy="10.6" r="1.5"/>
<circle class="st0" cx="31.9" cy="10.6" r="1.5"/>
<circle class="st0" cx="38.9" cy="10.6" r="1.5"/>
<path class="st0" d="M0,12.6c0.8,0,1.5,0.7,1.5,1.5S0.8,15.6,0,15.6V12.6z"/>
<circle class="st0" cx="7.1" cy="14.1" r="1.5"/>
<circle class="st0" cx="14.1" cy="14.1" r="1.5"/>
<circle class="st0" cx="21.2" cy="14.1" r="1.5"/>
<circle class="st0" cx="28.3" cy="14.1" r="1.5"/>
<circle class="st0" cx="35.4" cy="14.1" r="1.5"/>
<path class="st0" d="M42.5,15.6c-0.8,0-1.5-0.7-1.5-1.5s0.7-1.5,1.5-1.5V15.6z"/>
<circle class="st0" cx="3.5" cy="17.7" r="1.5"/>
<circle class="st0" cx="10.6" cy="17.7" r="1.5"/>
<circle class="st0" cx="17.7" cy="17.7" r="1.5"/>
<circle class="st0" cx="24.8" cy="17.7" r="1.5"/>
<circle class="st0" cx="31.9" cy="17.7" r="1.5"/>
<circle class="st0" cx="38.9" cy="17.7" r="1.5"/>
<path class="st0" d="M0,19.7c0.8,0,1.5,0.7,1.5,1.5S0.8,22.7,0,22.7V19.7z"/>
<circle class="st0" cx="7.1" cy="21.2" r="1.5"/>
<circle class="st0" cx="14.1" cy="21.2" r="1.5"/>
<circle class="st0" cx="21.2" cy="21.2" r="1.5"/>
<circle class="st0" cx="28.3" cy="21.2" r="1.5"/>
<circle class="st0" cx="35.4" cy="21.2" r="1.5"/>
<path class="st0" d="M42.5,22.7c-0.8,0-1.5-0.7-1.5-1.5s0.7-1.5,1.5-1.5V22.7z"/>
<circle class="st0" cx="3.5" cy="24.8" r="1.5"/>
<circle class="st0" cx="10.6" cy="24.8" r="1.5"/>
<circle class="st0" cx="17.7" cy="24.8" r="1.5"/>
<circle class="st0" cx="24.8" cy="24.8" r="1.5"/>
<circle class="st0" cx="31.9" cy="24.8" r="1.5"/>
<circle class="st0" cx="38.9" cy="24.8" r="1.5"/>
<path class="st0" d="M0,26.8c0.8,0,1.5,0.7,1.5,1.5S0.8,29.8,0,29.8V26.8z"/>
<circle class="st0" cx="7.1" cy="28.3" r="1.5"/>
<circle class="st0" cx="14.1" cy="28.3" r="1.5"/>
<circle class="st0" cx="21.2" cy="28.3" r="1.5"/>
<circle class="st0" cx="28.3" cy="28.3" r="1.5"/>
<circle class="st0" cx="35.4" cy="28.3" r="1.5"/>
<path class="st0" d="M42.5,29.8c-0.8,0-1.5-0.7-1.5-1.5s0.7-1.5,1.5-1.5V29.8z"/>
<circle class="st0" cx="3.5" cy="31.9" r="1.5"/>
<circle class="st0" cx="10.6" cy="31.9" r="1.5"/>
<circle class="st0" cx="17.7" cy="31.9" r="1.5"/>
<circle class="st0" cx="24.8" cy="31.9" r="1.5"/>
<circle class="st0" cx="31.9" cy="31.9" r="1.5"/>
<circle class="st0" cx="38.9" cy="31.9" r="1.5"/>
<path class="st0" d="M0,33.9c0.8,0,1.5,0.7,1.5,1.5S0.8,36.9,0,36.9V33.9z"/>
<circle class="st0" cx="7.1" cy="35.4" r="1.5"/>
<circle class="st0" cx="14.1" cy="35.4" r="1.5"/>
<circle class="st0" cx="21.2" cy="35.4" r="1.5"/>
<circle class="st0" cx="28.3" cy="35.4" r="1.5"/>
<circle class="st0" cx="35.4" cy="35.4" r="1.5"/>
<path class="st0" d="M42.5,36.9c-0.8,0-1.5-0.7-1.5-1.5s0.7-1.5,1.5-1.5V36.9z"/>
<circle class="st0" cx="3.5" cy="38.9" r="1.5"/>
<circle class="st0" cx="10.6" cy="38.9" r="1.5"/>
<circle class="st0" cx="17.7" cy="38.9" r="1.5"/>
<circle class="st0" cx="24.8" cy="38.9" r="1.5"/>
<circle class="st0" cx="31.9" cy="38.9" r="1.5"/>
<circle class="st0" cx="38.9" cy="38.9" r="1.5"/>
<path class="st0" d="M0,41c0.8,0,1.5,0.7,1.5,1.5H0V41z M5.6,42.5c0-0.8,0.7-1.5,1.5-1.5s1.5,0.7,1.5,1.5
	C8.6,42.5,5.6,42.5,5.6,42.5z M12.6,42.5c0-0.8,0.7-1.5,1.5-1.5s1.5,0.7,1.5,1.5H12.6z M19.7,42.5c0-0.8,0.7-1.5,1.5-1.5
	s1.5,0.7,1.5,1.5H19.7z M26.8,42.5c0-0.8,0.7-1.5,1.5-1.5s1.5,0.7,1.5,1.5H26.8z M33.9,42.5c0-0.8,0.7-1.5,1.5-1.5s1.5,0.7,1.5,1.5
	H33.9z M41,42.5c0-0.8,0.7-1.5,1.5-1.5v1.5H41z"/>
</svg>
